<svg width="57" height="36" viewBox="0 0 57 36" fill="none" xmlns="http://www.w3.org/2000/svg">
<path d="M57 21.7417C56.996 25.3137 55.6856 28.7548 53.3271 31.3869C50.9686 34.0191 47.7328 35.6516 44.2573 35.9627C44.0752 35.9814 43.8932 35.9926 43.7112 36H35.6578C35.6578 33.9722 34.0194 31.2267 31.0449 28.5223C28.5291 26.2372 14.4466 16.2527 14.4466 16.2527H11.4685L10.3198 16.4018C8.69885 16.8672 7.29003 17.9028 6.34092 19.3264C5.39181 20.75 4.96316 22.4706 5.1303 24.1857C5.29745 25.9009 6.0497 27.5008 7.25483 28.7044C8.45997 29.9079 10.0409 30.638 11.7197 30.7664L11.9363 30.7813C11.9964 30.7813 12.0947 30.7813 12.1547 30.7813H12.5188H18.2039L18.2439 30.8167C18.8591 31.3726 19.4211 31.9874 19.9223 32.6526C20.605 33.5602 21.2785 34.7494 21.5134 36.0075H18.2367C18.2367 36.0075 11.8507 36.0075 11.7087 35.9926C8.70894 35.8569 5.86234 34.5976 3.70984 32.4541C1.55734 30.3105 0.248945 27.432 0.0332692 24.3656C-0.182407 21.2991 0.709668 18.2584 2.53998 15.8212C4.3703 13.384 7.01131 11.7201 9.96117 11.1457H10.014C10.3378 11.0868 10.6662 11.0575 10.9952 11.0581H15.9484L32.7979 23.2271C33.4351 23.7416 34.1013 24.3119 34.7621 24.9307C36.4952 26.5541 38.2081 28.5148 39.355 30.6937V30.7086L44.2518 30.7384C45.7915 30.5215 47.2483 29.8935 48.4758 28.9175C49.7033 27.9415 50.6582 26.6519 51.2447 25.1783C51.8312 23.7047 52.0285 22.099 51.8168 20.5225C51.6051 18.9461 50.9919 17.4545 50.0388 16.1976C49.0857 14.9407 47.8262 13.9628 46.387 13.3622C44.9478 12.7616 43.3796 12.5594 41.8399 12.776C40.3002 12.9925 38.8433 13.6202 37.6156 14.5959C36.3879 15.5717 35.4327 16.8611 34.8459 18.3346L30.5825 15.3506C31.7574 12.9333 33.5836 10.9109 35.8453 9.52235C35.2648 8.20983 34.3196 7.10139 33.1278 6.33534C31.9359 5.56928 30.5501 5.17953 29.1433 5.21472C27.7365 5.2499 26.3709 5.70847 25.217 6.53319C24.0631 7.35791 23.172 8.51227 22.6547 9.85225L18.3732 6.8962C19.4285 4.75815 21.0596 2.9741 23.0736 1.75489C25.0877 0.535677 27.4005 -0.0677344 29.7388 0.0159635C32.0771 0.0996615 34.3432 0.86697 36.2691 2.22721C38.1951 3.58745 39.7005 5.48377 40.6074 7.69206C42.6142 7.32725 44.6746 7.41698 46.6439 7.95496C48.6131 8.49293 50.4434 9.46608 52.0059 10.806C53.5684 12.1459 54.8253 13.82 55.6881 15.7106C56.5509 17.6012 56.9987 19.6623 57 21.7491V21.7417Z" fill="#1060F0"></path>
</svg>