<svg width="182" height="19" viewBox="0 0 182 19" fill="none" xmlns="http://www.w3.org/2000/svg">
<path d="M0 0.000604993H6.31711L12.583 13.969L18.8489 0.000604993H25.16L17.0395 18.0751H8.12652L0 0.000604993ZM28.0496 0.000604993H36.9626L45.0891 18.0751H38.772C37.7234 16.7158 36.1068 16.0273 33.9223 16.0095H27.1577L26.2402 18.0751H19.9231L28.0496 0.000604993ZM32.5061 4.1067L29.4929 10.8453H33.9238C34.4779 10.8444 35.0315 10.8791 35.581 10.9492L32.5061 4.1067ZM46.662 0.000604993H58.1964C60.4161 0.000604993 62.2511 0.51702 63.7015 1.54985C65.2563 2.68656 66.0427 4.32187 66.0608 6.4558C66.0608 9.46822 64.6014 11.4468 61.6826 12.3916C60.5553 12.7434 59.3789 12.9186 58.1964 12.911H52.4292V18.0751H46.662V0.000604993ZM52.4292 5.16476V7.74683H58.9828C59.2346 7.76028 59.4841 7.69506 59.696 7.56048C59.9078 7.42591 60.0711 7.22885 60.1625 6.99744C60.2469 6.83788 60.2918 6.66093 60.2936 6.48102C60.3149 6.22539 60.2525 5.96976 60.1156 5.75158C59.9787 5.53341 59.7744 5.36416 59.5327 5.26863C59.3665 5.20081 59.1884 5.16553 59.0084 5.16476H52.4292ZM79.1409 0.000604993C81.8679 0.000604993 84.2096 0.568464 86.1662 1.70418C88.8238 3.28706 90.1611 5.73163 90.1782 9.03787C90.1782 13.0149 88.3256 15.7087 84.6204 17.1195C82.8705 17.7723 81.012 18.0964 79.1409 18.0751C76.1007 18.0751 73.5927 17.4039 71.6171 16.0614C69.307 14.4785 68.1449 12.1374 68.1308 9.03787C68.1308 5.08067 69.9834 2.3868 73.6886 0.95627C75.4303 0.308078 77.2791 -0.0159677 79.1409 0.000604993ZM79.1409 5.16476C77.2718 5.16476 75.8656 5.62083 74.9225 6.53296C74.2395 7.18689 73.8985 8.02186 73.8995 9.03787C73.8911 9.52923 73.985 10.0171 74.1752 10.4714C74.3322 10.8548 74.5589 11.2069 74.8442 11.5101C75.1257 11.7909 75.4538 12.0222 75.8144 12.1942C76.1457 12.3631 76.4922 12.5012 76.8494 12.6068C77.191 12.6984 77.539 12.7653 77.8905 12.8071C78.2747 12.859 78.5413 12.8902 78.6905 12.8976C78.8396 12.9051 78.9918 12.911 79.1425 12.911C81.1362 12.911 82.5956 12.4203 83.5206 11.4389C84.1026 10.771 84.4194 9.91807 84.4125 9.03787C84.4125 7.14435 83.3112 5.93097 81.1086 5.39774C80.4646 5.24239 79.8039 5.16416 79.1409 5.16476ZM92.2482 0.000604993H103.783C106.006 0.000604993 107.841 0.51702 109.288 1.54985C110.861 2.68656 111.647 4.32187 111.647 6.4558C111.631 9.03787 110.523 10.871 108.324 11.9553C110.055 13.6084 111.165 15.6484 111.653 18.0751H105.645C104.666 15.5109 102.376 13.884 98.7763 13.1944C98.5141 13.144 98.261 13.1009 98.023 13.0653V18.0751H92.2482V0.000604993ZM98.0155 5.16476V7.74683H104.569C104.824 7.75791 105.075 7.69206 105.291 7.55811C105.506 7.42416 105.675 7.22852 105.774 6.99744C105.842 6.83342 105.877 6.65812 105.878 6.48102C105.901 6.22619 105.84 5.97101 105.704 5.75284C105.568 5.53468 105.366 5.36499 105.125 5.26863C104.959 5.20081 104.781 5.16553 104.601 5.16476H98.0155ZM124.745 0.000604993C125.732 0.000604993 135.763 0.000605142 135.763 9.03787C135.763 18.0751 125.86 18.0751 124.745 18.0751H113.747V0.000604993H124.745ZM114.269 17.5587H124.745C125.3 17.5587 127.968 17.5483 130.46 16.4725C132.952 15.3966 135.239 13.371 135.239 9.03787C135.239 4.70473 132.923 2.68062 130.418 1.60327C127.912 0.525924 125.244 0.51702 124.745 0.51702H114.269V17.5587ZM124.75 4.64834C125.771 4.64356 126.784 4.81948 127.742 5.16773C128.48 5.4338 129.137 5.88188 129.649 6.46915C130.239 7.19548 130.549 8.10373 130.525 9.03342C130.55 9.96102 130.243 10.8679 129.66 11.5962C129.152 12.1893 128.497 12.6424 127.758 12.911C126.794 13.2618 125.773 13.4377 124.745 13.4304H118.983V4.64834H124.75ZM119.511 12.911H124.745C125.274 12.911 129.996 12.911 129.996 9.04232C129.996 5.17366 125.22 5.16921 124.745 5.16921H119.507L119.511 12.911ZM157.758 0.000604993V5.16476H144.128V6.4558H157.758V11.6199H144.128V12.911H157.758V18.0751H138.36V0.000604993H157.758ZM138.885 17.5587H157.233V13.4274H143.603V11.1035H157.233V6.97518H143.603V4.64834H157.233V0.51702H138.885V17.5587ZM167.231 0.000604993L170.863 4.48511L174.497 0.000604993H181.88L174.559 9.03787L181.88 18.0751H174.497L170.865 13.5921L167.231 18.0751H159.849L167.169 9.03787L159.856 0.000604993H167.231ZM167.846 9.03787L160.943 17.5587H166.979L170.865 12.7626L174.75 17.5572H180.79L173.883 9.03787L180.79 0.51702H174.755L170.865 5.31315L166.981 0.51702H160.944L167.846 9.03787Z" fill="white"/>
</svg>
